<?xml version="1.0" standalone="no"?>
<svg xmlns="http://www.w3.org/2000/svg" viewBox="0 0 186.752 53" width="186.752" height="53"><rect fill="none" stroke="#4b7abb" stroke-width="3" width="183.752" height="50" x="1.5" y="1.5"></rect><g fill="#6997d6" color="#6997d6" transform="translate(12, 12.001) scale(0.29)"><svg width="100.0" height="100.0" x="0.0" y="0.0" viewBox="0 0 100 100"><path fill="currentColor" d="M54.535,25.722l15.606-13.515L60.071,0H39.929l-10.07,12.207l15.606,13.515  c-18.45,2.239-32.747,17.943-32.747,36.997C12.718,83.309,29.41,100,50,100c20.589,0,37.281-16.691,37.281-37.281  C87.281,43.665,72.983,27.961,54.535,25.722z M65.266,12.674l-10.782,8.5l3.317-8.5H65.266z M58.397,3.084l-1.072,7.688  l-5.103-2.391L58.397,3.084z M47.778,8.381l-5.104,2.391l-1.071-7.688L47.778,8.381z M34.734,12.674h7.464l3.318,8.5L34.734,12.674z   M50,90.526c-15.333,0-27.808-12.475-27.808-27.808S34.667,34.911,50,34.911s27.808,12.475,27.808,27.808S65.333,90.526,50,90.526z"></path></svg></g><line x1="51.5" y1="0" x2="51.5" y2="100%" stroke="#4b7abb" stroke-width="3"></line><path fill="#6997d6" fill-rule="nonzero" d="M1.90 18L5.35 1.97Q3.84 2.02 3.04 3.12Q2.23 4.22 2.23 6.94L2.23 6.94Q2.23 7.82 2.40 8.17Q2.57 8.52 2.57 8.57L2.57 8.57Q1.27 8.57 0.64 8.03Q0 7.49 0 6.24L0 6.24Q0 4.54 0.84 3.13Q1.68 1.73 3.52 0.86Q5.35 0 8.18 0L8.18 0Q8.76 0 9.72 0.12L9.72 0.12Q11.45 0.29 12.17 0.29L12.17 0.29Q13.44 0.29 14.33 0L14.33 0Q14.26 0.22 14.06 0.95Q13.87 1.68 13.38 2.20Q12.89 2.71 12.05 2.88L12.05 2.88Q10.63 2.88 8.69 2.42L8.69 2.42L7.68 7.20L11.18 7.20L10.80 8.98L7.30 8.98L5.35 18L1.90 18ZM14.23 18.14Q12.46 18.14 11.47 17.22Q10.49 16.30 10.49 14.33L10.49 14.33Q10.49 12.67 11.14 10.68Q11.78 8.69 13.25 7.24Q14.71 5.78 16.97 5.78L16.97 5.78Q19.61 5.78 19.61 8.09L19.61 8.09Q19.61 9.43 18.84 10.56Q18.07 11.69 16.80 12.37Q15.53 13.06 14.09 13.15L14.09 13.15Q14.04 13.87 14.04 14.11L14.04 14.11Q14.04 15.29 14.45 15.71Q14.86 16.13 15.77 16.13L15.77 16.13Q17.06 16.13 17.99 15.53Q18.91 14.93 20.02 13.70L20.02 13.70L20.83 13.70Q18.17 18.14 14.23 18.14L14.23 18.14ZM14.28 12Q15.17 11.95 15.97 11.38Q16.78 10.80 17.27 9.91Q17.76 9.02 17.76 8.04L17.76 8.04Q17.76 7.06 17.16 7.06L17.16 7.06Q16.30 7.06 15.47 8.57Q14.64 10.08 14.28 12L14.28 12ZM19.10 18L21.65 6L25.10 6L24.79 7.49Q25.61 6.77 26.27 6.38Q26.93 6 27.70 6L27.70 6Q28.46 6 28.91 6.53Q29.35 7.06 29.35 7.80L29.35 7.80Q29.35 8.50 28.90 9.02Q28.44 9.55 27.62 9.55L27.62 9.55Q27.10 9.55 26.92 9.30Q26.74 9.05 26.64 8.57L26.64 8.57Q26.57 8.26 26.50 8.11Q26.42 7.97 26.23 7.97L26.23 7.97Q25.73 7.97 25.38 8.17Q25.03 8.38 24.48 8.88L24.48 8.88L22.56 18L19.10 18ZM33.05 4.70Q32.26 4.70 31.70 4.15Q31.15 3.60 31.15 2.81L31.15 2.81Q31.15 2.02 31.70 1.45Q32.26 0.89 33.05 0.89L33.05 0.89Q33.84 0.89 34.40 1.45Q34.97 2.02 34.97 2.81L34.97 2.81Q34.97 3.60 34.40 4.15Q33.84 4.70 33.05 4.70L33.05 4.70ZM31.42 18.14Q30.26 18.14 29.56 17.42Q28.85 16.70 28.85 15.26L28.85 15.26Q28.85 14.66 29.04 13.70L29.04 13.70L30.67 6L34.13 6L32.40 14.16Q32.30 14.52 32.30 14.93L32.30 14.93Q32.30 15.41 32.53 15.61Q32.76 15.82 33.29 15.82L33.29 15.82Q33.98 15.82 34.58 15.23Q35.18 14.64 35.45 13.70L35.45 13.70L36.46 13.70Q35.57 16.30 34.18 17.22Q32.78 18.14 31.42 18.14L31.42 18.14ZM38.33 18.14Q36.96 18.14 36.05 17.21Q35.14 16.27 35.14 14.28L35.14 14.28Q35.14 12.50 35.84 10.55Q36.55 8.59 37.96 7.24Q39.36 5.88 41.30 5.88L41.30 5.88Q42.29 5.88 42.77 6.22Q43.25 6.55 43.25 7.10L43.25 7.10L43.25 7.27L43.51 6L46.97 6L45.24 14.16Q45.14 14.52 45.14 14.93L45.14 14.93Q45.14 15.96 46.13 15.96L46.13 15.96Q46.80 15.96 47.29 15.34Q47.78 14.71 48.07 13.70L48.07 13.70L49.08 13.70Q48.19 16.30 46.88 17.22Q45.58 18.14 44.26 18.14L44.26 18.14Q43.25 18.14 42.64 17.58Q42.02 17.02 41.90 15.94L41.90 15.94Q41.21 16.92 40.36 17.53Q39.50 18.14 38.33 18.14L38.33 18.14ZM39.89 15.82Q40.49 15.82 41.08 15.25Q41.66 14.69 41.88 13.70L41.88 13.70L43.03 8.28Q43.03 7.97 42.79 7.67Q42.55 7.37 42.05 7.37L42.05 7.37Q41.09 7.37 40.32 8.48Q39.55 9.60 39.12 11.17Q38.69 12.74 38.69 13.94L38.69 13.94Q38.69 15.14 39.04 15.48Q39.38 15.82 39.89 15.82L39.89 15.82ZM62.57 18.41Q61.61 18.41 60.90 18.01Q60.19 17.62 60.19 16.63L60.19 16.63Q60.19 16.01 60.50 15.24L60.50 15.24Q60.94 15.72 61.31 15.91Q61.68 16.10 62.11 16.10L62.11 16.10Q63.31 16.10 63.90 14.76Q64.49 13.42 64.49 11.78L64.49 11.78Q64.49 8.74 62.21 8.74L62.21 8.74Q61.56 8.74 61.10 8.81L61.10 8.81L59.14 18L55.68 18L58.94 2.74L62.50 2.26L61.37 7.58L61.51 7.58Q62.42 7.58 63.22 7.00Q64.01 6.41 64.49 5.51Q64.97 4.61 64.97 3.70L64.97 3.70Q64.97 2.59 64.19 1.85Q63.41 1.10 61.80 1.10L61.80 1.10Q60.34 1.10 58.94 1.76Q57.55 2.42 56.68 3.74Q55.80 5.06 55.80 6.94L55.80 6.94Q55.80 7.82 55.97 8.17Q56.14 8.52 56.14 8.57L56.14 8.57Q54.86 8.57 54.22 8.05Q53.57 7.54 53.57 6.36L53.57 6.36Q53.57 4.73 54.79 3.26Q56.02 1.80 58.03 0.90Q60.05 0 62.28 0L62.28 0Q63.96 0 65.11 0.53Q66.26 1.06 66.83 1.92Q67.39 2.78 67.39 3.82L67.39 3.82Q67.39 4.92 66.77 5.95Q66.14 6.98 64.99 7.63L64.99 7.63Q66.43 7.90 67.13 8.96Q67.82 10.03 67.82 11.50L67.82 11.50Q67.82 12.86 67.31 14.47Q66.79 16.08 65.60 17.24Q64.42 18.41 62.57 18.41L62.57 18.41ZM72.67 4.70Q71.88 4.70 71.33 4.15Q70.78 3.60 70.78 2.81L70.78 2.81Q70.78 2.02 71.33 1.45Q71.88 0.89 72.67 0.89L72.67 0.89Q73.46 0.89 74.03 1.45Q74.59 2.02 74.59 2.81L74.59 2.81Q74.59 3.60 74.03 4.15Q73.46 4.70 72.67 4.70L72.67 4.70ZM71.04 18.14Q69.89 18.14 69.18 17.42Q68.47 16.70 68.47 15.26L68.47 15.26Q68.47 14.66 68.66 13.70L68.66 13.70L70.30 6L73.75 6L72.02 14.16Q71.93 14.52 71.93 14.93L71.93 14.93Q71.93 15.41 72.16 15.61Q72.38 15.82 72.91 15.82L72.91 15.82Q73.61 15.82 74.21 15.23Q74.81 14.64 75.07 13.70L75.07 13.70L76.08 13.70Q75.19 16.30 73.80 17.22Q72.41 18.14 71.04 18.14L71.04 18.14ZM89.66 18.14Q88.20 18.14 87.52 17.36Q86.83 16.58 86.83 15.43L86.83 15.43Q86.83 14.93 86.95 14.29Q87.07 13.66 87.20 13.06Q87.34 12.46 87.38 12.29L87.38 12.29Q87.58 11.45 87.74 10.63Q87.91 9.82 87.91 9.31L87.91 9.31Q87.91 8.09 87.05 8.09L87.05 8.09Q86.42 8.09 85.94 8.70Q85.46 9.31 85.18 10.30L85.18 10.30L83.54 18L80.09 18L81.84 9.72Q81.91 9.43 81.91 9.12L81.91 9.12Q81.91 8.06 81.19 8.06L81.19 8.06Q80.52 8.06 80.03 8.68Q79.54 9.29 79.25 10.30L79.25 10.30L77.62 18L74.16 18L76.70 6L80.16 6L79.90 7.25Q81.12 5.88 82.82 5.88L82.82 5.88Q84.94 5.88 85.30 7.94L85.30 7.94Q86.62 5.90 88.63 5.90L88.63 5.90Q89.86 5.90 90.58 6.58Q91.30 7.25 91.30 8.62L91.30 8.62Q91.30 9.31 91.13 10.16Q90.96 11.02 90.65 12.24L90.65 12.24Q90.46 12.98 90.30 13.69Q90.14 14.40 90.14 14.81L90.14 14.81Q90.14 15.29 90.36 15.55Q90.58 15.82 91.10 15.82L91.10 15.82Q91.82 15.82 92.26 15.30Q92.69 14.78 93.12 13.70L93.12 13.70L94.13 13.70Q93.24 16.34 92.08 17.24Q90.91 18.14 89.66 18.14L89.66 18.14ZM96 18.14Q94.63 18.14 93.72 17.21Q92.81 16.27 92.81 14.28L92.81 14.28Q92.81 12.50 93.52 10.55Q94.22 8.59 95.63 7.24Q97.03 5.88 98.98 5.88L98.98 5.88Q99.96 5.88 100.44 6.22Q100.92 6.55 100.92 7.10L100.92 7.10L100.92 7.27L101.18 6L104.64 6L102.91 14.16Q102.82 14.52 102.82 14.93L102.82 14.93Q102.82 15.96 103.80 15.96L103.80 15.96Q104.47 15.96 104.96 15.34Q105.46 14.71 105.74 13.70L105.74 13.70L106.75 13.70Q105.86 16.30 104.56 17.22Q103.25 18.14 101.93 18.14L101.93 18.14Q100.92 18.14 100.31 17.58Q99.70 17.02 99.58 15.94L99.58 15.94Q98.88 16.92 98.03 17.53Q97.18 18.14 96 18.14L96 18.14ZM97.56 15.82Q98.16 15.82 98.75 15.25Q99.34 14.69 99.55 13.70L99.55 13.70L100.70 8.28Q100.70 7.97 100.46 7.67Q100.22 7.37 99.72 7.37L99.72 7.37Q98.76 7.37 97.99 8.48Q97.22 9.60 96.79 11.17Q96.36 12.74 96.36 13.94L96.36 13.94Q96.36 15.14 96.71 15.48Q97.06 15.82 97.56 15.82L97.56 15.82Z" transform="translate(65 17.5)"></path></svg>